<svg width="31" height="31" viewBox="0 0 37 37" fill="none" xmlns="http://www.w3.org/2000/svg">
<path d="M12.625 12.625H8.70833V16.5417H12.625V12.625Z" fill="white"/>
<path d="M16.5417 12.625H20.4583V16.5417H16.5417V12.625Z" fill="white"/>
<path d="M28.2917 12.625H24.375V16.5417H28.2917V12.625Z" fill="white"/>
<path d="M0.875 4.79167V36.125L10.275 29.075C10.9522 28.5651 11.7773 28.2901 12.625 28.2917H32.2083C34.3715 28.2917 36.125 26.5381 36.125 24.375V4.79167C36.125 2.62855 34.3715 0.875 32.2083 0.875H4.79167C2.62855 0.875 0.875 2.62855 0.875 4.79167ZM4.79167 28.2917V4.79167H32.2083V24.375H11.3208C10.4729 24.3727 9.64764 24.6478 8.97075 25.1583L4.79167 28.2917Z" fill="white"/>
</svg>
