<svg width="98" height="98" viewBox="0 0 98 98" fill="none" xmlns="http://www.w3.org/2000/svg">
<g clip-path="url(#clip0_907_82)">
<path d="M77.5833 81.6668H24.5C11.737 81.6744 1.10613 71.8825 0.0667971 59.1619C-0.972534 46.4413 7.92787 35.0537 20.5228 32.9894C26.32 22.7112 37.1996 16.3478 49 16.3332C56.3582 16.3054 63.5058 18.7888 69.2615 23.3731C74.9132 27.8561 78.9312 34.0755 80.6948 41.0703C91.2458 42.6915 98.7668 52.1668 97.951 62.8104C97.1353 73.454 88.2581 81.6725 77.5833 81.6668ZM49 24.5001C40.1461 24.5106 31.9834 29.2862 27.636 36.9992L25.725 40.4251L21.8499 41.0581C13.4802 42.4603 7.57868 50.0385 8.2696 58.4967C8.96052 66.9548 16.0137 73.4748 24.5 73.5002H77.5833C83.9883 73.5068 89.3172 68.5781 89.8097 62.192C90.3021 55.806 85.7919 50.1186 79.4616 49.1431L74.088 48.3264L72.7731 43.0507C70.0589 32.1352 60.2479 24.4795 49 24.5001ZM54.9208 65.3335H43.0791V53.0835H32.6666L49 36.7501L65.3333 53.0835H54.9208V65.3335Z" fill="#2F80ED"/>
</g>
<defs>
<clipPath id="clip0_907_82">
<rect width="98" height="98" fill="white"/>
</clipPath>
</defs>
</svg>
