<svg width="99" height="99" viewBox="0 0 99 99" fill="none" xmlns="http://www.w3.org/2000/svg">
<g clip-path="url(#clip0_911_82)">
<path d="M78.375 82.5H24.75C11.8568 82.5076 1.11745 72.6158 0.067516 59.7654C-0.98242 46.915 8.0088 35.4112 20.7323 33.3258C26.5886 22.9427 37.5792 16.5144 49.5 16.4997C56.9319 16.4726 64.1508 18.9812 69.9641 23.6115C75.6728 28.139 79.7317 34.4203 81.5141 41.4851C92.1845 43.1101 99.7974 52.687 98.9738 63.4489C98.1501 74.2109 89.1684 82.5177 78.375 82.5ZM49.5 24.7499C40.5558 24.7605 32.3098 29.5849 27.918 37.3766L25.9875 40.8375L22.0729 41.4768C13.6178 42.8934 7.65605 50.5489 8.35402 59.0934C9.05199 67.6378 16.1771 74.2244 24.75 74.25H78.375C84.8454 74.2566 90.2286 69.2777 90.7261 62.8265C91.2236 56.3752 86.6674 50.6298 80.2725 49.6443L74.844 48.8193L73.5158 43.4898C70.7738 32.4629 60.8627 24.7291 49.5 24.7499ZM38.8286 67.7077L33 61.875L42.4586 52.4163L33 42.9577L38.8328 37.125L48.2914 46.5795L57.75 37.125L63.5828 42.9577L54.1241 52.4163L63.5828 61.875L57.75 67.7036L48.2873 58.2491L38.8328 67.7077H38.8286Z" fill="#EB5757"/>
</g>
<defs>
<clipPath id="clip0_911_82">
<rect width="99" height="99" fill="white"/>
</clipPath>
</defs>
</svg>
