<svg width="94" height="94" viewBox="0 0 94 94" fill="none" xmlns="http://www.w3.org/2000/svg">
<g clip-path="url(#clip0_911_78)">
<path d="M26.0714 35.2451L26.0724 35.2432C30.3309 27.6881 38.3265 23.0101 46.9991 22.9998L26.0714 35.2451ZM26.0714 35.2451L24.356 38.3203L20.8775 38.8884L20.8755 38.8888M26.0714 35.2451L20.8755 38.8888M20.8755 38.8888C12.5912 40.2767 6.74989 47.7776 7.43376 56.1494C8.11763 64.5213 15.0988 70.9747 23.4985 70.9998H23.5M20.8755 38.8888L23.5 70.9998M23.5 70.9998H74.4162M23.5 70.9998L76.2935 46.6426M76.2935 46.6426L76.2945 46.6427C82.6248 47.6182 87.135 53.3056 86.6425 59.6917C86.1501 66.0777 80.8212 71.0064 74.4162 70.9998M76.2935 46.6426L71.4686 45.9093M76.2935 46.6426L71.4686 45.9093M74.4162 70.9998L74.4167 70.5035V70.9998H74.4162ZM71.4686 45.9093L70.2881 41.1726C70.2881 41.1725 70.288 41.1724 70.288 41.1723C67.629 30.4793 58.018 22.9798 46.9994 22.9998L71.4686 45.9093ZM74.417 77.8331H74.4167H23.5H23.4997C11.5181 77.8403 1.53814 68.6479 0.562444 56.7061C-0.413255 44.7643 7.94223 34.0739 19.7661 32.136L20.0028 32.0972L20.1207 31.8882C25.5927 22.1864 35.8621 16.18 47.0006 16.1662L47.0019 16.1662C53.946 16.14 60.6913 18.4836 66.123 22.8099L66.1238 22.8105C71.4587 27.0422 75.2516 32.913 76.9164 39.5159L76.9974 39.8375L77.3253 39.8878C87.1872 41.4032 94.2171 50.2597 93.4546 60.2082C92.6921 70.1566 84.3946 77.8384 74.417 77.8331ZM41.5882 54.7559L59.2514 37.0927L64.0667 41.9081L41.2347 64.7402L28.2335 51.739L33.0488 46.9236L40.8811 54.7559L41.2347 55.1094L41.5882 54.7559Z" fill="#27AE60" stroke="#27AE60"/>
</g>
<defs>
<clipPath id="clip0_911_78">
<rect width="94" height="94" fill="white"/>
</clipPath>
</defs>
</svg>
