<svg width="301" height="230" viewBox="0 0 301 230" fill="none" xmlns="http://www.w3.org/2000/svg">
<path d="M301 0H0V59.428H301V0Z" fill="#E6E6E6"/>
<path d="M6.41733 53.0118H294.584V6.4209H6.41733V53.0118Z" fill="white"/>
<path d="M31.643 11.5776C35.1539 11.5776 38.586 12.6188 41.5053 14.5693C44.4245 16.5199 46.6998 19.2923 48.0434 22.536C49.387 25.7797 49.7385 29.349 49.0535 32.7925C48.3686 36.2359 46.6779 39.399 44.1953 41.8816C41.7127 44.3642 38.5497 46.0549 35.1062 46.7398C31.6627 47.4248 28.0934 47.0732 24.8497 45.7297C21.6061 44.3861 18.8336 42.1108 16.883 39.1916C14.9325 36.2723 13.8914 32.8402 13.8914 29.3293C13.8914 24.6213 15.7616 20.1061 19.0907 16.777C22.4198 13.4479 26.935 11.5776 31.643 11.5776V11.5776Z" fill="#E6E6E6"/>
<path d="M249.289 22.3823H74.0919V26.2415H249.289V22.3823Z" fill="#E6E6E6"/>
<path d="M249.289 32.416H74.0919V36.2752H249.289V32.416Z" fill="#E6E6E6"/>
<path d="M301 84.8066H0V144.235H301V84.8066Z" fill="#E6E6E6"/>
<path d="M6.41733 137.818H294.584V91.2271H6.41733V137.818Z" fill="white"/>
<path d="M31.643 131.887C41.447 131.887 49.3946 123.939 49.3946 114.135C49.3946 104.331 41.447 96.3833 31.643 96.3833C21.839 96.3833 13.8914 104.331 13.8914 114.135C13.8914 123.939 21.839 131.887 31.643 131.887Z" fill="#E6E6E6"/>
<path d="M249.289 107.188H74.0919V111.047H249.289V107.188Z" fill="#E6E6E6"/>
<path d="M249.289 117.222H74.0919V121.081H249.289V117.222Z" fill="#E6E6E6"/>
<path d="M301 169.612H0V229.04H301V169.612Z" fill="#E6E6E6"/>
<path d="M6.41733 222.624H294.584V176.033H6.41733V222.624Z" fill="white"/>
<path d="M31.643 216.693C41.447 216.693 49.3946 208.745 49.3946 198.941C49.3946 189.137 41.447 181.189 31.643 181.189C21.839 181.189 13.8914 189.137 13.8914 198.941C13.8914 208.745 21.839 216.693 31.643 216.693Z" fill="#E6E6E6"/>
<path d="M249.289 191.994H74.0919V195.853H249.289V191.994Z" fill="#E6E6E6"/>
<path d="M249.289 202.027H74.0919V205.887H249.289V202.027Z" fill="#E6E6E6"/>
</svg>
