<svg width="38" height="12" viewBox="0 0 38 16" fill="none" xmlns="http://www.w3.org/2000/svg">
<path d="M26.4609 9.35586C26.4674 7.25233 24.9489 5.09713 22.5154 4.70336C20.2381 4.33488 17.9195 4.37137 15.7062 4.81015C13.3404 5.27917 12.1635 7.47656 12.4996 9.57468L12.4843 9.58069C10.7273 10.2706 9.09376 11.215 7.6358 12.3835L4.61465 9.6335L4.61572 9.63233L4.61849 9.62928C12.4086 1.04509 25.2906 0.91806 34.3324 9.16518L34.3365 9.16892L31.7539 12.0061L31.7524 12.0051C30.1151 10.8852 28.339 9.99496 26.4782 9.36174L26.4609 9.35586ZM2.32673 7.54876L1.34716 8.6249C0.806756 9.21859 0.881077 10.1663 1.51316 10.7417L6.66599 15.432C7.23319 15.9483 8.07 15.9966 8.63294 15.5454L9.61383 14.7592C10.8544 13.7649 12.2436 12.962 13.7387 12.3749L14.8745 11.929C15.5327 11.6705 15.8831 10.9706 15.7087 10.2626L15.4961 9.39911C15.3098 8.64233 15.7216 7.89623 16.4701 7.74783C18.3361 7.3779 20.2939 7.34709 22.2138 7.65775C22.9839 7.78235 23.5117 8.51387 23.4442 9.2747L23.3674 10.1422C23.3043 10.854 23.7636 11.5414 24.4607 11.7786L25.6648 12.1884C27.2481 12.7272 28.7595 13.4847 30.1528 14.4377L31.2546 15.1914C31.8869 15.6238 32.714 15.5496 33.199 15.0169L37.604 10.1775C38.1444 9.58383 38.0701 8.63613 37.438 8.06077L36.2919 7.01749C25.9936 -2.37573 11.2052 -2.23471 2.32673 7.54876Z" fill="white"/>
</svg>
