<svg width="24" height="24" viewBox="0 0 29 29" fill="none" xmlns="http://www.w3.org/2000/svg">
<path d="M14.5001 28.2082C6.92918 28.2082 0.791748 22.0707 0.791748 14.4998C0.791748 6.92893 6.92918 0.791504 14.5001 0.791504C22.071 0.791504 28.2084 6.92893 28.2084 14.4998C28.1998 22.0672 22.0674 28.1995 14.5001 28.2082ZM14.5001 4.70817C9.09229 4.70817 4.70842 9.09205 4.70842 14.4998C4.70842 19.9076 9.09229 24.2915 14.5001 24.2915C19.9079 24.2915 24.2918 19.9076 24.2918 14.4998C24.2918 9.09205 19.9079 4.70817 14.5001 4.70817ZM14.5001 20.3748C11.2554 20.3748 8.62508 17.7445 8.62508 14.4998C8.62508 11.2552 11.2554 8.62484 14.5001 8.62484C17.7448 8.62484 20.3751 11.2552 20.3751 14.4998C20.3751 16.058 19.7561 17.5523 18.6543 18.6541C17.5526 19.7559 16.0582 20.3748 14.5001 20.3748Z" fill="white"/>
</svg>
