<svg width="26" height="28" viewBox="0 0 26 28" fill="none" xmlns="http://www.w3.org/2000/svg">
<path fill-rule="evenodd" clip-rule="evenodd" d="M24.499 16.1336C26.164 15.0729 26.1263 12.5757 24.357 11.6006L4.76015 0.837833L4.56496 0.74004C2.60389 -0.148571 0.400844 1.61724 0.913832 3.77336L3.32771 13.9162L0.847297 23.9509L0.802956 24.165C0.447852 26.291 2.70904 27.9512 4.65981 26.8944L24.3268 16.2348L24.499 16.1336ZM23.4501 13.4594C23.7602 13.7093 23.7271 14.2209 23.3475 14.4262L3.67981 25.0862L3.57592 25.131C3.15837 25.267 2.73192 24.8969 2.84375 24.4447L5.19104 14.9459L15.409 14.9131L15.5609 14.9015C16.0566 14.8264 16.4356 14.3977 16.4339 13.8814L16.4223 13.7294C16.3472 13.2338 15.9184 12.8547 15.4021 12.8564L5.19783 12.8895L2.91454 3.29728L2.89857 3.18503C2.87805 2.74438 3.36163 2.41603 3.76931 2.64029L23.3654 13.4027L23.4501 13.4594Z" fill="#BDBDBD"/>
</svg>
