<svg width="24" height="24" viewBox="0 0 33 33" fill="none" xmlns="http://www.w3.org/2000/svg">
<path d="M32.7115 4.1015L32.6071 29.1479C32.5989 31.124 30.9903 32.7193 29.0141 32.7111L21.858 32.6813L21.8729 29.1032L29.0291 29.133L29.1334 4.08659L4.087 3.98221L3.98262 29.0286L11.1387 29.0585L11.1238 32.6365L3.96771 32.6067C1.9916 32.5985 0.396324 30.9898 0.404559 29.0137L0.508936 3.9673C0.517171 1.99119 2.1258 0.395918 4.10191 0.404153L29.1483 0.50853C31.1244 0.516765 32.7197 2.12539 32.7115 4.1015ZM23.7067 18.3765L18.3396 18.3541L18.28 32.6664L14.7019 32.6514L14.7615 18.3392L9.39445 18.3168L16.5878 9.4015L23.7067 18.3765Z" fill="white"/>
</svg>
