<svg width="111" height="111" viewBox="0 0 111 111" fill="none" xmlns="http://www.w3.org/2000/svg">
<path d="M55.5 110.917C24.8943 110.917 0.083374 86.1059 0.083374 55.5002C0.083374 24.8944 24.8943 0.0834961 55.5 0.0834961C86.1058 0.0834961 110.917 24.8944 110.917 55.5002C110.883 86.092 86.0919 110.883 55.5 110.917ZM55.4114 99.8335H55.5C79.976 99.809 99.8013 79.954 99.789 55.478C99.7768 31.0021 79.9317 11.1669 55.4557 11.1669C30.9797 11.1669 11.1346 31.0021 11.1224 55.478C11.1101 79.954 30.9354 99.809 55.4114 99.8335ZM44.4167 83.2085L22.25 61.0418L30.0638 53.2281L44.4167 67.5256L80.9363 31.006L88.75 38.8752L44.4167 83.2085Z" fill="#27AE60"/>
</svg>
