<svg width="32" height="28" viewBox="0 0 38 34" fill="none" xmlns="http://www.w3.org/2000/svg">
<path d="M13.4998 0.5C8.43723 0.5 4.33317 4.60406 4.33317 9.66667C4.33317 14.7293 8.43723 18.8333 13.4998 18.8333C18.5624 18.8333 22.6665 14.7293 22.6665 9.66667C22.6665 4.60406 18.5624 0.5 13.4998 0.5ZM7.99984 9.66667C7.99984 6.6291 10.4623 4.16667 13.4998 4.16667C16.5374 4.16667 18.9998 6.6291 18.9998 9.66667C18.9998 12.7042 16.5374 15.1667 13.4998 15.1667C10.4623 15.1667 7.99984 12.7042 7.99984 9.66667Z" fill="white"/>
<path d="M27.9986 10.0668C27.4828 9.80387 26.9121 9.66678 26.3332 9.66678V6.00011C27.4911 6.00011 28.6326 6.2742 29.6641 6.80016C29.7778 6.85809 29.8897 6.91889 29.9998 6.98248C30.8897 7.49625 31.663 8.1921 32.2682 9.02602C32.9483 9.96316 33.3969 11.048 33.5771 12.1918C33.7574 13.3357 33.6642 14.5059 33.3052 15.6068C32.9462 16.7076 32.3317 17.7079 31.5118 18.5256C30.692 19.3433 29.6901 19.9552 28.5883 20.3113C27.6079 20.6282 26.573 20.7344 25.5513 20.6249C25.4249 20.6113 25.2986 20.5944 25.1727 20.5743C24.0301 20.3912 22.9472 19.9403 22.0122 19.2585L22.0103 19.2571L24.1717 16.2952C24.6394 16.6365 25.1813 16.8621 25.753 16.9537C26.3246 17.0453 26.9098 17.0003 27.4607 16.8222C28.0116 16.6442 28.5125 16.3382 28.9224 15.9294C29.3323 15.5205 29.6396 15.0204 29.8191 14.47C29.9986 13.9196 30.0452 13.3345 29.955 12.7626C29.8649 12.1907 29.6407 11.6483 29.3006 11.1797C28.9606 10.7112 28.5144 10.3298 27.9986 10.0668Z" fill="white"/>
<path d="M33.663 33.5C33.663 32.5374 33.4734 31.5843 33.1051 30.695C32.7367 29.8057 32.1968 28.9976 31.5162 28.317C30.8355 27.6364 30.0275 27.0965 29.1382 26.7281C28.2489 26.3597 27.2957 26.1701 26.3332 26.1701V22.5C27.5837 22.5 28.8235 22.7132 29.9998 23.1291C30.1824 23.1936 30.3634 23.2631 30.5427 23.3373C31.8773 23.8901 33.0899 24.7004 34.1113 25.7218C35.1328 26.7433 35.943 27.9559 36.4958 29.2905C36.5701 29.4698 36.6395 29.6508 36.7041 29.8333C37.12 31.0096 37.3332 32.2495 37.3332 33.5H33.663Z" fill="white"/>
<path d="M26.3332 33.5H22.6665C22.6665 28.4374 18.5624 24.3333 13.4998 24.3333C8.43723 24.3333 4.33317 28.4374 4.33317 33.5H0.666504C0.666504 26.4123 6.41218 20.6667 13.4998 20.6667C20.5875 20.6667 26.3332 26.4123 26.3332 33.5Z" fill="white"/>
</svg>
